<svg width="141" height="45" viewBox="0 0 141 45" fill="none" xmlns="http://www.w3.org/2000/svg">
<path d="M74.1168 11.4278C74.1168 13.0023 72.8484 14.2707 71.2734 14.2707C69.6991 14.2707 68.4308 13.0023 68.4308 11.4278C68.4308 9.85331 69.6554 8.58498 71.2734 8.58498C72.8918 8.62873 74.1168 9.89706 74.1168 11.4278ZM62.3952 17.1573C62.3952 17.4197 62.3952 17.857 62.3952 17.857C62.3952 17.857 61.0394 16.1076 58.1528 16.1076C53.3855 16.1076 49.6679 19.7377 49.6679 24.7674C49.6679 29.7533 53.3417 33.4272 58.1528 33.4272C61.0831 33.4272 62.3952 31.634 62.3952 31.634V32.3776C62.3952 32.7274 62.6576 32.9898 63.0075 32.9898H66.5501V16.545C66.5501 16.545 63.3137 16.545 63.0075 16.545C62.6576 16.545 62.3952 16.8511 62.3952 17.1573ZM62.3952 27.6977C61.7391 28.6599 60.4271 29.4909 58.8526 29.4909C56.0534 29.4909 53.9103 27.7415 53.9103 24.7674C53.9103 21.7934 56.0534 20.0439 58.8526 20.0439C60.3833 20.0439 61.7829 20.9186 62.3952 21.8371V27.6977ZM69.1743 16.545H73.3727V32.9898H69.1743V16.545ZM131.892 16.1076C129.006 16.1076 127.65 17.857 127.65 17.857V8.62873H123.451V32.9898C123.451 32.9898 126.688 32.9898 126.993 32.9898C127.343 32.9898 127.606 32.6837 127.606 32.3776V31.634C127.606 31.634 128.962 33.4272 131.849 33.4272C136.616 33.4272 140.333 29.7533 140.333 24.7674C140.333 19.7815 136.616 16.1076 131.892 16.1076ZM131.193 29.4472C129.574 29.4472 128.306 28.6162 127.65 27.654V21.7934C128.306 20.9186 129.705 20.0002 131.193 20.0002C133.991 20.0002 136.135 21.7496 136.135 24.7237C136.135 27.6977 133.991 29.4472 131.193 29.4472ZM121.265 23.2366V33.0336H117.065V23.7177C117.065 21.0061 116.191 19.9127 113.829 19.9127C112.561 19.9127 111.248 20.5687 110.417 21.5309V32.9898H106.219V16.545H109.543C109.893 16.545 110.155 16.8511 110.155 17.1573V17.857C111.38 16.5887 112.998 16.1076 114.616 16.1076C116.454 16.1076 117.984 16.6325 119.209 17.6821C120.696 18.9068 121.265 20.4813 121.265 23.2366ZM96.0282 16.1076C93.1421 16.1076 91.7862 17.857 91.7862 17.857V8.62873H87.5876V32.9898C87.5876 32.9898 90.8237 32.9898 91.1296 32.9898C91.4796 32.9898 91.7421 32.6837 91.7421 32.3776V31.634C91.7421 31.634 93.098 33.4272 95.9848 33.4272C100.752 33.4272 104.47 29.7533 104.47 24.7674C104.513 19.7815 100.796 16.1076 96.0282 16.1076ZM95.3289 29.4472C93.7105 29.4472 92.4421 28.6162 91.7862 27.654V21.7934C92.4421 20.9186 93.8414 20.0002 95.3289 20.0002C98.1275 20.0002 100.271 21.7496 100.271 24.7237C100.271 27.6977 98.1275 29.4472 95.3289 29.4472ZM83.9574 16.1076C85.2258 16.1076 85.8817 16.3263 85.8817 16.3263V20.2188C85.8817 20.2188 82.3824 19.0379 80.1956 21.5309V33.0336H75.997V16.545C75.997 16.545 79.2338 16.545 79.5397 16.545C79.8897 16.545 80.1522 16.8511 80.1522 17.1573V17.857C80.9397 16.9386 82.6449 16.1076 83.9574 16.1076ZM40.3521 31.5028C40.1334 30.978 39.9147 30.4094 39.696 29.9283C39.3461 29.141 38.9962 28.3975 38.6901 27.6977L38.6464 27.654C35.6285 21.0936 32.3921 14.4457 28.9806 7.88519L28.8494 7.62276C28.4995 6.96671 28.1496 6.26693 27.7997 5.56715C27.3624 4.7799 26.925 3.94891 26.2252 3.16165C24.8257 1.4122 22.8138 0.450001 20.6707 0.450001C18.4839 0.450001 16.5158 1.4122 15.0725 3.07418C14.4164 3.86144 13.9353 4.69243 13.4979 5.47968C13.1481 6.17946 12.7982 6.87924 12.4483 7.53526L12.317 7.79769C8.94942 14.3582 5.66916 21.0061 2.65135 27.5665L2.60761 27.654C2.30146 28.3538 1.95157 29.0973 1.60168 29.8846C1.383 30.3657 1.16432 30.8905 0.945635 31.4591C0.377062 33.0773 0.202117 34.6081 0.420799 36.1826C0.901899 39.4628 3.08872 42.2182 6.10652 43.4428C7.24366 43.9239 8.42456 44.1426 9.64914 44.1426C9.99907 44.1426 10.4364 44.0989 10.7863 44.0551C12.2296 43.8802 13.7166 43.3991 15.16 42.5681C16.9531 41.5622 18.6588 40.1189 20.5833 38.0195C22.5076 40.1189 24.2571 41.5622 26.0065 42.5681C27.4499 43.3991 28.9369 43.8802 30.3802 44.0551C30.7301 44.0989 31.1674 44.1426 31.5173 44.1426C32.7419 44.1426 33.9666 43.9239 35.06 43.4428C38.1215 42.2182 40.2646 39.4191 40.7457 36.1826C41.0956 34.6518 40.9207 33.121 40.3521 31.5028ZM20.627 33.7771C18.2652 30.8031 16.7345 28.0039 16.2096 25.6422C15.9909 24.6362 15.9472 23.7615 16.0784 22.9743C16.1659 22.2745 16.4283 21.6621 16.7782 21.1373C17.6092 19.9564 19.0088 19.2129 20.627 19.2129C22.2452 19.2129 23.6885 19.9127 24.4758 21.1373C24.8257 21.6621 25.0881 22.2745 25.1756 22.9743C25.3068 23.7615 25.2631 24.6799 25.0444 25.6422C24.5195 27.9601 22.9888 30.7593 20.627 33.7771ZM38.0778 35.8327C37.7716 38.107 36.2409 40.0751 34.0978 40.9498C33.0481 41.3872 31.911 41.5184 30.7738 41.3872C29.6804 41.256 28.587 40.9061 27.4499 40.25C25.8753 39.3753 24.3008 38.0195 22.4639 36.0076C25.3505 32.465 27.1 29.2285 27.756 26.3419C28.0621 24.9861 28.1059 23.7615 27.9747 22.6243C27.7997 21.5309 27.4061 20.525 26.7938 19.6502C25.438 17.6821 23.1637 16.545 20.627 16.545C18.0903 16.545 15.816 17.7259 14.4602 19.6502C13.8479 20.525 13.4542 21.5309 13.2793 22.6243C13.1043 23.7615 13.1481 25.0298 13.4979 26.3419C14.154 29.2285 15.9472 32.5087 18.7901 36.0514C16.9969 38.0632 15.3786 39.4191 13.8041 40.2938C12.667 40.9498 11.5736 41.2998 10.4802 41.4309C9.29928 41.5622 8.16213 41.3872 7.15619 40.9936C5.01311 40.1189 3.48234 38.1507 3.17619 35.8764C3.04498 34.783 3.13245 33.6896 3.56981 32.465C3.70103 32.0276 3.91971 31.5903 4.13839 31.0654C4.44454 30.3657 4.79443 29.6222 5.14432 28.8786L5.18806 28.7912C8.20588 22.2745 11.4423 15.6265 14.81 9.15352L14.9413 8.89109C15.2911 8.23505 15.6411 7.53526 15.9909 6.87924C16.3409 6.17946 16.7345 5.52342 17.2156 4.95484C18.134 3.90517 19.3586 3.3366 20.7145 3.3366C22.0703 3.3366 23.2949 3.90517 24.2133 4.95484C24.6944 5.52342 25.0881 6.17946 25.438 6.87924C25.7878 7.53526 26.1378 8.23505 26.4876 8.89109L26.6189 9.15352C29.9428 15.6702 33.1793 22.3181 36.1971 28.8349V28.8786C36.547 29.5784 36.8532 30.3657 37.203 31.0654C37.4217 31.5903 37.6404 32.0276 37.7716 32.465C38.1215 33.6021 38.2528 34.6955 38.0778 35.8327Z" fill="black" style="fill:black;fill-opacity:1;"/>
</svg>
