<svg width="40" height="39" viewBox="0 0 40 39" fill="none" xmlns="http://www.w3.org/2000/svg">
<path fill-rule="evenodd" clip-rule="evenodd" d="M20.7074 0.505242C20.2406 0.409223 19.759 0.409223 19.2922 0.505242C18.7525 0.616235 18.2702 0.886404 17.8867 1.10119L17.7821 1.15958L4.78539 8.38C4.74946 8.39996 4.71244 8.42036 4.6745 8.44125C4.26856 8.66485 3.75815 8.94598 3.36618 9.37132C3.0273 9.73906 2.77084 10.1749 2.61396 10.6497C2.4325 11.1989 2.43462 11.7817 2.43631 12.2451C2.43647 12.2884 2.43662 12.3307 2.43662 12.3718V26.628C2.43662 26.6691 2.43647 26.7114 2.43631 26.7547C2.43462 27.2181 2.4325 27.8008 2.61396 28.35C2.77084 28.8249 3.0273 29.2607 3.36618 29.6285C3.75815 30.0538 4.26856 30.3349 4.6745 30.5585C4.71244 30.5794 4.74947 30.5998 4.7854 30.6198L17.7822 37.8402L17.8867 37.8986C18.2702 38.1134 18.7525 38.3835 19.2922 38.4945C19.759 38.5905 20.2406 38.5905 20.7074 38.4945C21.2471 38.3835 21.7295 38.1134 22.1129 37.8986L22.2175 37.8402L35.2142 30.6198C35.2301 30.6109 35.2462 30.602 35.2625 30.593C35.2831 30.5817 35.3039 30.5702 35.3251 30.5585C35.731 30.3349 36.2415 30.0538 36.6334 29.6285C36.9723 29.2607 37.2288 28.8249 37.3856 28.35C37.5671 27.8008 37.565 27.2181 37.5633 26.7547C37.5631 26.7114 37.563 26.6691 37.563 26.628V12.3718C37.563 12.3307 37.5631 12.2884 37.5633 12.2451C37.565 11.7817 37.5671 11.1989 37.3856 10.6497C37.2288 10.1749 36.9723 9.73905 36.6334 9.37132C36.2415 8.94597 35.731 8.66483 35.3251 8.44124L35.3237 8.44046C35.2862 8.41984 35.2497 8.39971 35.2142 8.38L22.2175 1.15958L22.1129 1.10119C21.7294 0.8864 21.2471 0.616234 20.7074 0.505242ZM19.488 4.23018C19.7542 4.08231 19.8901 4.0076 19.9914 3.95872L19.9998 3.9547L20.0082 3.95872C20.1096 4.0076 20.2454 4.08231 20.5116 4.23018L32.1901 10.7183L19.9997 17.4907L7.80944 10.7183L19.488 4.23018ZM5.94926 13.7032L18.2434 20.5333L18.2435 34.0782L6.49128 27.5492C6.21036 27.3931 6.06693 27.3126 5.9663 27.2485L5.9578 27.243L5.95716 27.233C5.94999 27.1139 5.94926 26.9494 5.94926 26.628V13.7032Z" fill="url(#paint0_linear_4006_1601)" style=""/>
<defs>
<linearGradient id="paint0_linear_4006_1601" x1="22.9428" y1="54.4384" x2="-15.0624" y2="19.4288" gradientUnits="userSpaceOnUse">
<stop stop-color="#FB432C" style="stop-color:#FB432C;stop-color:color(display-p3 0.9843 0.2627 0.1725);stop-opacity:1;"/>
<stop offset="1" stop-color="#FF591E" style="stop-color:#FF591E;stop-color:color(display-p3 1.0000 0.3490 0.1176);stop-opacity:1;"/>
</linearGradient>
</defs>
</svg>
