<svg width="185" height="19" viewBox="0 0 185 19" fill="none" xmlns="http://www.w3.org/2000/svg">
<path d="M100.832 0C94.3091 0 90.9305 3.94322 90.9305 9.25345C90.9305 14.5847 94.3091 18.5491 100.832 18.5491C107.376 18.5491 110.754 14.5847 110.754 9.25345C110.764 3.94322 107.376 0 100.832 0ZM157.373 0C151.856 0 149.087 2.15565 149.087 5.97296C149.087 9.07482 150.926 10.5361 154.732 10.9353L158.967 11.3779C160.581 11.5565 161.319 12.1659 161.319 12.9649C161.319 13.8692 160.24 14.6795 157.641 14.6795C154.637 14.6795 153.428 13.9323 153.225 12.4286H148.831C149.034 16.4876 151.717 18.5596 157.481 18.5596C162.741 18.5596 165.681 16.2876 165.681 12.8701C165.681 9.89449 163.939 8.10711 160.646 7.73913L156.476 7.27651C154.038 7.01376 153.428 6.41398 153.428 5.60413C153.428 4.69985 154.679 3.89064 157.128 3.89064C159.48 3.89064 160.71 4.75344 160.934 6.04673H165.415C165.19 2.3136 162.014 0 157.373 0ZM55.0467 0.420469V11.8405C55.0467 16.9295 59.6653 18.5175 63.5357 18.5175C67.3851 18.5175 71.9827 16.9295 71.9827 11.8405V0.420469H67.4064V11.3252H67.4281C67.4281 13.6178 65.996 14.5425 63.5475 14.5425C61.1738 14.5425 59.6231 13.5757 59.6231 11.3252V0.420469H55.0467ZM16.6496 0.483695L0.643158 10.2619V18.117H0.781492L16.8309 8.2966H25.16C25.417 8.2966 25.6523 8.49595 25.6523 8.78029C25.6523 9.01122 25.5453 9.10631 25.4173 9.17969L17.5364 13.827C17.0231 14.1318 16.8416 14.7311 16.8416 15.1832L16.8301 18.117H26.8492V1.09385C26.8492 0.76796 26.5928 0.483695 26.208 0.483695H16.6496ZM41.6812 0.483695L34.805 18.1181H39.5313L40.729 14.8154H48.4064L49.5826 18.1181H54.4688L47.5078 0.483696L41.6812 0.483695ZM74.0792 0.483695V4.30056H79.8639V18.1181H84.4296V4.30058H90.1929V0.483696L74.0792 0.483695ZM113.245 0.483695V18.1181H121.629C128.055 18.1181 129.829 15.7619 129.829 9.16915C129.829 2.97567 128.13 0.483695 121.629 0.483695H113.245ZM132.386 0.483695V18.1181H146.82V14.3001H136.962V11.1039H144.896V7.27651H136.962V4.30058H146.82V0.483696L132.386 0.483695ZM168.012 0.483695L168.033 18.1181H172.589V11.4201L178.77 18.1181H184.555L176.214 9.41153L184.555 0.483696H179.112L172.589 7.64429V0.483696L168.012 0.483695ZM100.832 3.96442C104.243 3.96442 106.072 6.01455 106.072 9.25345C106.082 12.5657 104.243 14.5846 100.832 14.5846C97.4526 14.5846 95.5926 12.5549 95.5926 9.25345C95.5926 6.01455 97.4526 3.96442 100.832 3.96442ZM44.5998 4.15409L47.0692 11.0618H42.0866L44.5998 4.15409ZM117.812 4.30058H121.447C124.312 4.30058 125.167 5.06805 125.167 9.16915C125.167 12.9125 124.205 14.3001 121.447 14.3001H117.812V4.30058Z" fill="black" style="fill:black;fill-opacity:1;"/>
</svg>
