<svg width="215" height="112" viewBox="0 0 215 112" fill="none" xmlns="http://www.w3.org/2000/svg">
<g clip-path="url(#clip0_4106_226)">
<path d="M114.995 61.3945L101.342 43.6052H97.9381V67.4518H101.388V49.1771L115.43 67.4518H118.445V43.6052H114.995V61.3945ZM80.6125 56.9705H92.8506V53.8718H80.6033V46.6945H94.4138V43.5958H77.0883V67.4518H94.5896V64.3531H80.6033L80.6125 56.9705ZM66.2195 53.9465C61.4558 52.7891 60.1238 51.8745 60.1238 49.6531C60.1238 47.6558 61.872 46.3025 64.4805 46.3025C66.856 46.3727 69.1473 47.2065 71.0203 48.6825L72.8703 46.0411C70.4991 44.1656 67.5575 43.1763 64.5453 43.2412C59.8648 43.2412 56.5995 46.0411 56.5995 50.0265C56.5995 54.3198 59.3745 55.8038 64.425 57.0451C68.9205 58.0905 70.2988 59.0611 70.2988 61.2358C70.2988 63.4105 68.4488 64.7545 65.5905 64.7545C62.745 64.7413 60.0069 63.6562 57.913 61.7118L55.8318 64.2225C58.5136 66.5477 61.9344 67.8229 65.4703 67.8158C70.5393 67.8158 73.7953 65.0625 73.7953 60.8065C73.7675 57.2038 71.6585 55.2718 66.2195 53.9465ZM181.022 43.6052L173.908 54.8051L166.841 43.6052H162.716L172.049 58.0251V67.4611H175.601V57.9131L184.999 43.6052H181.022ZM121.239 46.8345H128.981V67.4611H132.533V46.8345H140.275V43.6052H121.248L121.239 46.8345ZM156.703 58.1465C160.274 57.1478 162.253 54.6278 162.253 51.0251C162.253 46.4425 158.933 43.5585 153.577 43.5585H143.069V67.4425H146.584V58.8745H152.55L158.544 67.4611H162.651L156.176 58.2958L156.703 58.1465ZM146.575 55.8131V46.7598H153.207C156.666 46.7598 158.646 48.4118 158.646 51.2771C158.646 54.1425 156.528 55.8131 153.244 55.8131H146.575ZM26.8238 37.1092C26.4395 36.4657 25.8968 35.9333 25.2486 35.5638C24.6003 35.1942 23.8683 35 23.1238 35C22.3792 35 21.6472 35.1942 20.999 35.5638C20.3506 35.9333 19.808 36.4657 19.4238 37.1092L13.3373 47.6278C17.9871 49.9702 21.9488 53.4991 24.829 57.8641C27.7093 62.2291 29.4078 67.2783 29.756 72.5105H25.4825C25.1349 68.0255 23.6327 63.7099 21.1246 59.9907C18.6164 56.2714 15.1891 53.2776 11.182 51.3051L5.54876 61.1331C7.80144 62.1525 9.76392 63.7271 11.2559 65.7119C12.7478 67.6967 13.7212 70.0282 14.0865 72.4918H4.27226C4.15586 72.4835 4.04335 72.4461 3.94486 72.383C3.84638 72.3199 3.76501 72.233 3.70812 72.1301C3.65121 72.0274 3.62056 71.9119 3.61893 71.7942C3.6173 71.6765 3.64473 71.5602 3.69876 71.4558L6.41826 66.7891C5.4969 66.0135 4.4439 65.4128 3.31026 65.0158L0.618509 69.6825C0.338285 70.1675 0.156365 70.7038 0.0833179 71.2604C0.0102708 71.8169 0.047553 72.3825 0.192999 72.9244C0.338444 73.4662 0.589153 73.9736 0.930562 74.4168C1.27197 74.8601 1.69728 75.2305 2.18176 75.5065C2.8201 75.8695 3.53958 76.0622 4.27226 76.0665H17.7125C17.9621 72.9586 17.4121 69.8383 16.1156 67.0077C14.8191 64.1773 12.8202 61.7326 10.3125 59.9105L12.4493 56.1771C15.6141 58.3705 18.1574 61.3585 19.8282 64.8464C21.499 68.3344 22.2396 72.2016 21.9768 76.0665H33.3635C33.6286 70.2117 32.3663 64.3892 29.7027 59.1809C27.0389 53.9725 23.0672 49.5607 18.1843 46.3865L22.504 38.9198C22.6002 38.7571 22.7563 38.6393 22.9382 38.5921C23.1201 38.5449 23.3131 38.5722 23.4753 38.6678C23.9655 38.9385 42.2435 71.1198 42.5858 71.4931C42.646 71.6023 42.6767 71.7255 42.6747 71.8503C42.6726 71.9752 42.638 72.0974 42.5741 72.2044C42.5103 72.3114 42.4196 72.3995 42.3112 72.4599C42.2027 72.5202 42.0806 72.5505 41.9568 72.5478H37.5538C37.6093 73.7363 37.6093 74.9217 37.5538 76.1038H41.9753C42.5367 76.1075 43.0933 75.9989 43.6128 75.7841C44.1324 75.5693 44.6045 75.2526 45.002 74.8525C45.3995 74.4523 45.7142 73.9766 45.9283 73.4529C46.1423 72.9291 46.2512 72.3677 46.2488 71.8011C46.2493 71.0529 46.0513 70.3182 45.6753 69.6731L26.8238 37.1092Z" fill="black" style="fill:black;fill-opacity:1;"/>
</g>
<defs>
<clipPath id="clip0_4106_226">
<rect width="185" height="42" fill="white" style="fill:white;fill-opacity:1;" transform="translate(0 35)"/>
</clipPath>
</defs>
</svg>
