<svg width="121" height="32" viewBox="0 0 121 32" fill="none" xmlns="http://www.w3.org/2000/svg">
<path d="M0.333313 18.1756C0.333313 9.37584 7.26397 3.10172 17.1205 3.10172C20.046 3.10172 23.2389 3.64669 25.03 4.45908V9.95448H24.8295L17.9767 5.04878C17.6231 4.92614 16.8854 4.84684 16.186 4.84684C11.0018 4.84684 7.34143 9.67644 7.34143 16.3402C7.34143 23.7826 11.9027 29.5781 17.6987 29.5781C18.0913 29.5716 18.4825 29.5307 18.868 29.456L18.7564 29.4098V17.0521L16.9989 14.9049V14.7048H27.2436V14.9049L25.486 17.0521V31.4252H25.2859L20.8468 30.0568C19.134 30.9134 16.4862 31.5363 14.1057 31.5363C5.94028 31.5363 0.333313 26.1184 0.333313 18.1756ZM31.9828 14.4042L29.9136 12.3354V12.1777L37.2781 10.2325H37.6673L37.9439 14.4042H38.1772C39.8573 11.4451 41.3368 10.2325 43.2055 10.2325C43.9843 10.2325 44.6519 10.4662 44.9968 10.7779V17.0852H44.7967L40.8606 14.4369C40.7436 14.4123 40.6242 14.401 40.5046 14.4032C39.6927 14.4032 38.5244 15.182 38.1352 16.1165V28.888L40.1925 30.7585V30.9586H30.2253V30.7585L31.9828 28.8893V14.4042ZM46.6672 30.9466V30.7907L48.4248 28.8773V14.4042L46.356 12.3797V12.1777L54.1876 10.2307H54.5767V28.8884L56.3347 30.8018V30.9577H46.6672V30.9466ZM48.1453 4.04735C48.1453 2.13395 49.4363 0.965624 51.4941 0.965624C53.5518 0.965624 54.8422 2.13395 54.8422 4.04735C54.8422 5.9165 53.5633 7.08438 51.4941 7.08438C49.4248 7.08438 48.1453 5.9165 48.1453 4.04735ZM59.1937 30.9466V30.7465L60.9513 28.8773V13.0362H58.1812V12.8804L60.9843 10.4662C61.8411 4.81502 65.3121 0.965624 69.5505 0.965624C70.6071 0.965624 71.8557 1.19938 72.3537 1.4774L71.7309 6.58366H71.5305L65.9577 4.12528C64.7451 4.24746 63.6981 6.22771 63.6981 8.01894C63.6981 10.3215 65.4561 11.6009 68.4471 11.6009H73.6311C73.9431 5.60713 77.2911 0.965624 81.4629 0.965624C82.4421 0.965624 83.6103 1.19938 84.1551 1.4774L83.4879 6.53939H83.2875L78.3387 4.20135C77.2041 4.31246 76.3143 5.99211 76.3143 7.82808C76.3143 10.3178 77.9499 11.6087 81.1095 11.6087H93.0243L92.7117 13.8375V28.9603L94.4697 30.7958V30.9517H84.7803V30.7958L86.5713 28.8824V13.0362H79.7517V28.8884L82.0881 30.7585V30.9586H71.8065V30.7585L73.5975 28.8451V13.0362H67.0923V28.8884L69.4281 30.7585V30.9586H59.1928L59.1937 30.9466ZM86.3043 4.04735C86.3043 2.13395 87.5835 0.965624 89.6529 0.965624C91.7553 0.965624 93.0459 2.13395 93.0459 4.04735C93.0459 5.9165 91.7547 7.08438 89.6529 7.08438C87.5835 7.08438 86.3043 5.9165 86.3043 4.04735ZM105.261 28.8884L107.018 30.7585V30.9586H97.3509V30.7585L99.1089 28.8893V14.412L97.0395 12.3432V12.1427L104.404 10.2293H104.793L105.07 13.8892H105.337C107.472 11.4308 109.775 10.2293 112.345 10.2293C115.816 10.2293 118.23 12.4885 118.23 15.6804V28.8852L119.988 30.7543V30.9544H110.287V30.7543L112.078 28.763V16.9049C112.078 14.9915 110.91 13.8237 109.041 13.8237C107.796 13.8237 106.551 14.3239 105.26 15.3364L105.261 28.8884Z" fill="black" style="fill:black;fill-opacity:1;"/>
</svg>
