<svg width="161" height="41" viewBox="0 0 161 41" fill="none" xmlns="http://www.w3.org/2000/svg">
<g clip-path="url(#clip0_4006_1469)">
<path d="M44.6658 10.4999L44.6087 10.5189V19.033H36.5326V10.5189L36.4755 10.4999C35.2755 10.2523 34.0946 10.2523 32.9137 10.4999L32.8565 10.5189V30.0995L32.9137 30.1186C33.5041 30.2328 34.0946 30.309 34.685 30.309C35.2755 30.309 35.866 30.2518 36.4755 30.1186L36.5326 30.0995V22.1568H44.6087V30.0995L44.6658 30.1186C45.8468 30.3662 47.0467 30.3662 48.2277 30.1186L48.2848 30.0995V10.5189L48.2277 10.4999C47.0277 10.2713 45.8468 10.2713 44.6658 10.4999ZM57.1799 16.0046C52.9513 16.0046 50.4371 18.6711 50.4371 23.1473C50.4371 25.471 50.9705 27.3186 52.0371 28.5948C53.199 29.9852 54.9323 30.69 57.237 30.69C61.1417 30.69 63.1417 28.3662 63.3893 26.0615V26.0043L63.3321 25.9853C62.3417 25.6615 61.4274 25.5853 60.3417 25.7377H60.3036V25.7758C60.075 27.1472 58.9322 27.9662 57.2751 27.9662C54.9513 27.9662 53.8085 26.6901 53.7704 24.0615H63.5988V24.0044C63.8845 21.4139 63.3702 19.3187 62.1131 17.8902C60.9513 16.6712 59.2561 16.0046 57.1799 16.0046ZM57.1417 18.5378C58.1132 18.5378 58.9322 18.8426 59.4846 19.433C60.056 20.0426 60.3417 20.9568 60.2845 22.0425H53.7704C53.8276 19.814 55.0657 18.5378 57.1417 18.5378ZM65.9797 10.4999L65.9225 10.5189V30.0995L65.9797 30.1186C66.5321 30.2328 67.0845 30.309 67.6559 30.309C68.2082 30.309 68.7797 30.2518 69.3321 30.1186L69.3892 30.0995V10.5189L69.3321 10.4999C68.2273 10.2523 67.1035 10.2713 65.9797 10.4999ZM79.0271 16.0046C77.5605 16.0046 76.0176 16.5759 74.5509 17.6616L74.3414 16.6331L74.3033 16.6141C73.4653 16.3664 72.7796 16.3664 71.9605 16.6141L71.9225 16.6331V36.1184L71.9796 36.1375C72.532 36.2518 73.0843 36.3279 73.6557 36.3279C74.2272 36.3279 74.7795 36.2708 75.3319 36.1375L75.389 36.1184V29.6042C76.5509 30.3471 77.789 30.69 79.1794 30.69C83.0266 30.69 85.3314 27.9662 85.3314 23.3758C85.313 18.7092 83.0266 16.0046 79.0271 16.0046ZM75.3319 19.8711C76.3605 19.1664 77.3129 18.8426 78.3413 18.8426C80.6842 18.8426 81.9602 20.4616 81.9602 23.433C81.9602 26.3472 80.7034 27.89 78.3033 27.89C77.2747 27.89 76.3033 27.5662 75.3319 26.8805V19.8711ZM100.017 19.5664C99.4266 19.3378 98.893 19.1474 98.3794 18.9759C95.7122 18.0235 94.1122 17.4522 94.0746 16.0046C94.0554 15.3378 94.265 14.7665 94.7218 14.2902C95.389 13.6046 96.5122 13.2426 97.8842 13.2426C99.2362 13.2426 100.284 13.6046 100.912 14.2712C101.446 14.8426 101.675 15.6236 101.617 16.595V16.6522L101.675 16.6712C102.836 16.8998 103.998 16.8807 105.255 16.595L105.312 16.5759V16.5188C105.388 14.8807 104.893 13.4522 103.883 12.3856C102.627 11.0522 100.607 10.3475 98.0554 10.3284H97.9794C93.2362 10.3284 90.3794 12.4427 90.341 15.9855C90.3218 19.5092 93.5602 20.6902 95.5026 21.3758L95.789 21.4902C96.4362 21.7187 97.0458 21.9282 97.5794 22.1187C100.207 23.033 101.788 23.5854 101.846 24.9758C101.865 25.6996 101.655 26.2901 101.217 26.7472C100.588 27.3948 99.4842 27.7186 98.017 27.6995C96.3978 27.6995 95.1602 27.2805 94.4554 26.5186C93.941 25.9472 93.7314 25.2234 93.8074 24.3472V24.2901L93.7506 24.271C92.5698 24.0425 91.3698 24.0615 90.189 24.3282L90.1506 24.3472V24.4044C90.0554 25.9853 90.5314 27.3948 91.5602 28.4805C92.9314 29.9471 95.1794 30.709 98.0746 30.69C100.912 30.69 105.579 29.9281 105.617 24.9758C105.56 21.6806 102.741 20.614 100.017 19.5664ZM114.131 18.8426C116.474 18.8426 117.027 20.3663 117.141 21.2616V21.3187H117.198C118.283 21.4902 119.312 21.4139 120.303 21.1282L120.359 21.1092V21.0521C120.264 19.6806 119.674 18.4426 118.703 17.5474C117.598 16.5378 116.017 15.9855 114.151 15.9855C109.693 15.9855 107.236 18.595 107.236 23.3378C107.236 28.0614 109.674 30.6709 114.093 30.6709C115.998 30.6709 117.598 30.1186 118.722 29.071C119.655 28.1948 120.227 27.0138 120.34 25.7377V25.6806L120.283 25.6615C119.35 25.3377 118.322 25.2806 117.198 25.471H117.159V25.5091C116.855 27.6424 114.779 27.7948 114.151 27.7948C111.751 27.7948 110.627 26.3662 110.627 23.2996C110.607 20.2711 111.731 18.8426 114.131 18.8426ZM128.798 16.0046C124.417 16.0046 121.998 18.614 121.998 23.3568C121.998 28.0805 124.417 30.69 128.798 30.69C133.179 30.69 135.598 28.0805 135.598 23.3568C135.598 18.614 133.179 16.0046 128.798 16.0046ZM132.283 23.3758C132.283 26.4043 131.14 27.871 128.798 27.871C126.455 27.871 125.312 26.4043 125.312 23.3758C125.312 20.2902 126.417 18.8426 128.798 18.8426C131.14 18.8426 132.283 20.3282 132.283 23.3758ZM146.569 16.6331L146.511 16.6522V26.4043C145.407 27.3567 144.397 27.7758 143.235 27.7758C141.597 27.7758 140.892 26.8424 140.892 24.633V16.6331L140.835 16.6141C139.731 16.3474 138.607 16.3474 137.483 16.6141L137.426 16.6331V25.4138C137.426 28.7471 139.216 30.6709 142.359 30.6709C144.035 30.6709 145.502 30.0233 147.083 28.5757L147.407 30.0995L147.445 30.1186C148.245 30.3281 149.083 30.3281 149.883 30.1186L149.94 30.0995V16.6331L149.883 16.6141C148.816 16.3474 147.692 16.3474 146.569 16.6331ZM160.492 27.49L160.473 27.4329L160.416 27.4519C159.083 27.7567 158.302 27.7376 157.845 27.3758C157.463 27.071 157.292 26.5377 157.292 25.6996V19.4521H159.997L160.016 19.395C160.207 18.4806 160.207 17.5474 160.016 16.6141L159.997 16.5569H157.292V12.8618L157.235 12.8427C156.131 12.595 155.007 12.595 153.902 12.8427L153.845 12.8618L153.863 16.5569H152.15L152.131 16.6141C151.921 17.5283 151.921 18.4806 152.131 19.395L152.15 19.4521H153.863L153.883 25.452C153.883 27.1282 153.978 28.8234 155.14 29.7947C155.768 30.309 156.683 30.5757 157.863 30.5757C158.587 30.5757 159.426 30.4805 160.397 30.29H160.435L160.454 30.2518C160.721 29.3566 160.74 28.4234 160.492 27.49Z" fill="black" style="fill:black;fill-opacity:1;"/>
<path d="M2.55231 23.0139L11.8093 13.757C13.0093 12.576 13.7521 10.9189 13.7521 9.10944C13.7521 7.31899 13.0283 5.68093 11.8664 4.5L2.60945 13.757C1.40947 14.9379 0.666626 16.595 0.666626 18.4045C0.666626 20.214 1.39042 21.833 2.55231 23.0139ZM24.9709 17.6045L15.714 26.8615C14.514 28.0424 13.7711 29.6995 13.7711 31.509C13.7711 33.2994 14.4949 34.9375 15.6568 36.1185L24.9138 26.8615C26.1137 25.6806 26.8566 24.0234 26.8566 22.2139C26.8566 20.4045 26.1328 18.7854 24.9709 17.6045ZM24.9138 13.776C26.1137 12.5951 26.8566 10.938 26.8566 9.12848C26.8566 7.33804 26.1328 5.69998 24.9709 4.51905L2.60945 26.8615C1.40947 28.0614 0.666626 29.6995 0.666626 31.5281C0.666626 33.3185 1.39042 34.9566 2.55231 36.1375L24.9138 13.776Z" fill="black" style="fill:black;fill-opacity:1;"/>
</g>
<defs>
<clipPath id="clip0_4006_1469">
<rect width="160" height="40" fill="white" style="fill:white;fill-opacity:1;" transform="translate(0.666626 0.5)"/>
</clipPath>
</defs>
</svg>
