<svg width="140" height="29" viewBox="0 0 140 29" fill="none" xmlns="http://www.w3.org/2000/svg">
<g clip-path="url(#clip0_4006_1452)">
<path d="M135.739 5.19243H140V23.7406H135.521L128.857 11.8128V23.7406H124.569V5.19243H129.048L135.739 17.257V5.19243ZM107.69 4.7C113.835 4.7 117.468 9.35072 117.468 14.4392C117.468 19.5275 113.808 24.1783 107.69 24.1783C101.518 24.1783 97.8852 19.5275 97.8852 14.4392C97.8852 9.37807 101.545 4.7 107.69 4.7ZM113.126 14.4665C113.126 11.4298 111.049 8.58471 107.717 8.58471C104.331 8.58471 102.31 11.4298 102.31 14.4665C102.31 17.5031 104.358 20.3483 107.717 20.3483C111.049 20.3209 113.126 17.5031 113.126 14.4665ZM38.5369 8.88564V5.19243H51.2095V8.88564H47.0035V23.7132H42.7155V8.88564H38.5369ZM83.9293 12.8524H90.9482V16.2174H83.9566V20.2936H90.9482V23.7406H79.6684V5.19243H90.9482V8.63943H83.9566V12.8524H83.9293ZM65.6301 5.19243C69.7269 5.19243 72.3758 8.28378 72.3758 11.895C72.3758 14.4938 71.0108 16.7919 68.689 17.8861L72.4031 23.7406H67.4327L64.1553 18.5975H62.1342V23.7406H57.8462V5.19243H65.6301ZM68.0336 11.895C68.0336 10.1714 66.8592 8.69414 65.0839 8.69414H62.1615V15.0957H65.0839C66.8865 15.0957 68.0336 13.6184 68.0336 11.895ZM30.1522 21.4699H23.5701L22.8599 23.7132H18.2988L24.9083 5.16507H28.8412L35.5326 23.7132H30.8896L30.1522 21.4699ZM26.8748 10.4724L24.6079 18.105H29.1143L26.8748 10.4724ZM7.75656 5.19243C11.8533 5.19243 14.5025 8.28378 14.5025 11.895C14.5025 15.506 11.8533 18.5975 7.75656 18.5975H4.28794V23.7406H0V5.19243H7.75656ZM10.1873 11.895C10.1873 10.1714 9.01285 8.69414 7.23758 8.69414H4.28794V15.0957H7.21028C9.01285 15.0957 10.1873 13.6184 10.1873 11.895Z" fill="black" style="fill:black;fill-opacity:1;"/>
</g>
<defs>
<clipPath id="clip0_4006_1452">
<rect width="140" height="28" fill="white" style="fill:white;fill-opacity:1;" transform="translate(0 0.5)"/>
</clipPath>
</defs>
</svg>
